HIERARCHY
ROOT Hips
{
	OFFSET -0.001795 -0.223333 0.028219
	CHANNELS 6 Xposition Yposition Zposition Zrotation Yrotation Xrotation 
	JOINT LeftUpLeg
	{
		OFFSET 0.069520 -0.091406 -0.006815
		CHANNELS 3 Zrotation Yrotation Xrotation
		JOINT LeftLeg
		{
			OFFSET 0.034277 -0.375199 -0.004496
			CHANNELS 3 Zrotation Yrotation Xrotation
			JOINT LeftFoot
			{
				OFFSET -0.013596 -0.397961 -0.043693
				CHANNELS 3 Zrotation Yrotation Xrotation
				JOINT LeftToe
				{
					OFFSET 0.026358 -0.055791 0.119288
					CHANNELS 3 Zrotation Yrotation Xrotation
					End Site
					{
						OFFSET 0.000000 0.000000 0.000000
					}
				}
			}
		}
	}
	JOINT RightUpLeg
	{
		OFFSET -0.067670 -0.090522 -0.004320
		CHANNELS 3 Zrotation Yrotation Xrotation
		JOINT RightLeg
		{
			OFFSET -0.038290 -0.382569 -0.008850
			CHANNELS 3 Zrotation Yrotation Xrotation
			JOINT RightFoot
			{
				OFFSET 0.015774 -0.398415 -0.042312
				CHANNELS 3 Zrotation Yrotation Xrotation
				JOINT RightToe
				{
					OFFSET -0.025372 -0.048144 0.123348
					CHANNELS 3 Zrotation Yrotation Xrotation
					End Site
					{
						OFFSET 0.000000 0.000000 0.000000
					}
				}
			}
		}
	}
	JOINT Spine
	{
		OFFSET -0.002533 0.108963 -0.026696
		CHANNELS 3 Zrotation Yrotation Xrotation
		JOINT Spine1
		{
			OFFSET 0.005487 0.135180 0.001092
			CHANNELS 3 Zrotation Yrotation Xrotation
			JOINT Spine2
			{
				OFFSET 0.001457 0.052922 0.025425
				CHANNELS 3 Zrotation Yrotation Xrotation
				JOINT Neck
				{
					OFFSET -0.002778 0.213870 -0.042857
					CHANNELS 3 Zrotation Yrotation Xrotation
					JOINT Head
					{
						OFFSET 0.005152 0.064970 0.051349
						CHANNELS 3 Zrotation Yrotation Xrotation
						End Site
						{
							OFFSET 0.000000 0.000000 0.000000
						}
					}
				}
				JOINT LeftShoulder
				{
					OFFSET 0.078845 0.121749 -0.034090
					CHANNELS 3 Zrotation Yrotation Xrotation
					JOINT LeftArm
					{
						OFFSET 0.090977 0.030469 -0.008868
						CHANNELS 3 Zrotation Yrotation Xrotation
						JOINT LeftForeArm
						{
							OFFSET 0.259612 -0.012772 -0.027456
							CHANNELS 3 Zrotation Yrotation Xrotation
							JOINT LeftHand
							{
								OFFSET 0.249234 0.008986 -0.001171
								CHANNELS 3 Zrotation Yrotation Xrotation
								End Site
								{
									OFFSET 0.000000 0.000000 0.000000
								}
							}
						}
					}
				}
				JOINT RightShoulder
				{
					OFFSET -0.081759 0.118833 -0.038615
					CHANNELS 3 Zrotation Yrotation Xrotation
					JOINT RightArm
					{
						OFFSET -0.096012 0.032551 -0.009143
						CHANNELS 3 Zrotation Yrotation Xrotation
						JOINT RightForeArm
						{
							OFFSET -0.253742 -0.013329 -0.021401
							CHANNELS 3 Zrotation Yrotation Xrotation
							JOINT RightHand
							{
								OFFSET -0.255298 0.007772 -0.005559
								CHANNELS 3 Zrotation Yrotation Xrotation
								End Site
								{
									OFFSET 0.000000 0.000000 0.000000
								}
							}
						}
					}
				}
			}
		}
	}
}
MOTION
Frames: 10
Frame Time: 0.050000
-0.004223 0.893525 -0.066434 -2.561812 -6.018566 2.350591 8.619814 -0.113598 -22.923310 -2.632801 0.918924 39.391573 2.652436 3.381312 -6.877494 0.000000 0.000000 0.000000 -1.165993 2.415117 -23.399101 1.407964 2.091212 40.369395 -5.208634 -11.144255 -6.470106 0.000000 0.000000 0.000000 8.451842 -0.592333 4.336508 -0.806276 0.387647 -1.839262 -8.284280 9.865061 7.268368 17.100361 -8.087919 -18.732812 0.000000 0.000000 0.000000 -12.617343 -9.287925 1.726029 -16.017744 3.036866 -1.847473 -126.590849 -70.704051 110.360123 0.000000 0.000000 0.000000 7.593785 -0.731984 -0.185256 19.164949 -0.059233 -2.246437 112.134361 55.672328 83.256625 0.000000 0.000000 0.000000 
-0.004534 0.894664 -0.066298 -2.467073 -5.924176 2.284658 8.319235 -0.181740 -22.869937 -2.381211 0.776426 39.399629 2.430740 2.871150 -6.763169 0.000000 0.000000 0.000000 -1.409127 2.311694 -22.894964 1.361800 2.073742 40.064539 -4.861520 -10.207741 -6.273973 0.000000 0.000000 0.000000 8.667412 -0.538414 3.788363 -0.771780 0.372142 -1.677724 -8.018162 9.430272 7.509894 16.314362 -7.985537 -17.528344 0.000000 0.000000 0.000000 -12.989689 -9.066203 1.675691 -16.633029 2.166673 -1.862792 -127.209658 -68.879327 109.422871 0.000000 0.000000 0.000000 7.090641 -0.989087 -0.337919 19.304398 0.977249 -2.140356 115.216627 57.174320 88.467564 0.000000 0.000000 0.000000 
-0.005728 0.895768 -0.065805 -2.184831 -5.996478 2.218794 7.912372 -0.261385 -22.503659 -2.327132 0.747511 38.822445 2.347251 2.701337 -6.701569 0.000000 0.000000 0.000000 -1.725154 2.220113 -22.518375 1.090273 2.179488 39.596567 -4.457971 -8.991979 -6.336885 0.000000 0.000000 0.000000 8.591876 -0.507883 3.567214 -0.697748 0.338277 -2.013331 -7.853650 9.269391 7.675238 15.550277 -7.705240 -16.865850 0.000000 0.000000 0.000000 -12.808581 -8.468152 1.474968 -17.726048 1.936959 -1.996722 -129.623010 -66.837962 110.341800 0.000000 0.000000 0.000000 6.775537 -1.548304 -0.599366 19.417562 2.247031 -2.007827 118.411610 58.126516 93.355670 0.000000 0.000000 0.000000 
-0.007924 0.896575 -0.064984 -2.044125 -5.603900 2.062570 7.746023 -0.318118 -22.294974 -2.070554 0.545811 38.611041 1.991282 1.911360 -6.418618 0.000000 0.000000 0.000000 -1.940934 2.110480 -21.976687 0.912811 2.126902 38.726030 -4.193521 -8.243263 -6.324063 0.000000 0.000000 0.000000 8.623584 -0.455269 3.107285 -0.750864 0.363780 -1.603938 -7.927006 9.051927 7.430698 14.992116 -7.620418 -15.792077 0.000000 0.000000 0.000000 -12.730246 -8.311878 1.396899 -18.208465 0.973932 -1.940117 -130.859768 -65.163331 110.108812 0.000000 0.000000 0.000000 6.395448 -1.865806 -0.733993 19.584756 2.470018 -1.981183 121.871253 57.553013 97.030810 0.000000 0.000000 0.000000 
-0.010893 0.896864 -0.064110 -1.916440 -5.384028 2.192693 7.670886 -0.349579 -22.569918 -1.805542 0.377054 38.549817 1.760930 1.321654 -6.441075 0.000000 0.000000 0.000000 -1.905470 2.063093 -21.559651 0.791041 2.128106 38.484936 -4.108823 -7.929089 -6.511584 0.000000 0.000000 0.000000 8.628152 -0.410611 2.667441 -0.959278 0.460877 -1.732554 -8.006625 9.046043 7.614295 14.827941 -7.527266 -15.729190 0.000000 0.000000 0.000000 -12.420770 -7.707405 1.146668 -18.605435 0.774498 -1.973112 -133.444486 -63.024224 111.116971 0.000000 0.000000 0.000000 6.118169 -2.161386 -0.849965 19.513508 2.415126 -1.980327 124.293632 56.171883 98.522864 0.000000 0.000000 0.000000 
-0.014041 0.896621 -0.063368 -1.695043 -5.323951 2.134873 7.582651 -0.370003 -22.451231 -1.730720 0.324937 38.197364 1.545303 0.640193 -6.781086 0.000000 0.000000 0.000000 -2.056888 1.977314 -20.982406 0.754121 2.113984 38.176473 -4.096756 -7.669447 -7.008795 0.000000 0.000000 0.000000 8.541099 -0.375990 2.395597 -1.358923 0.644978 -1.608499 -8.085716 9.781571 7.615922 14.830023 -7.645775 -15.071952 0.000000 0.000000 0.000000 -12.051424 -7.665179 1.033287 -18.781133 0.368674 -1.916712 -134.500715 -62.409887 111.431018 0.000000 0.000000 0.000000 5.961393 -2.572039 -0.970901 19.420855 1.507834 -2.098575 125.517555 54.591963 98.728835 0.000000 0.000000 0.000000 
-0.016856 0.896015 -0.063009 -1.510408 -4.869640 2.112638 7.303942 -0.453674 -22.568210 -1.425973 0.097801 38.025493 1.399213 -0.001930 -7.310393 0.000000 0.000000 0.000000 -2.227891 1.916560 -20.786518 0.842984 2.005082 38.234371 -4.021317 -7.429250 -7.145559 0.000000 0.000000 0.000000 8.363415 -0.342032 2.117924 -1.614183 0.765190 -1.529541 -8.129635 10.129055 8.067437 14.845313 -7.640569 -15.019107 0.000000 0.000000 0.000000 -12.122142 -7.532409 0.878359 -19.633159 0.180224 -1.982939 -136.100673 -62.624447 113.520963 0.000000 0.000000 0.000000 5.386825 -2.681216 -0.977954 20.303755 0.631260 -2.302892 127.278419 53.716390 100.531360 0.000000 0.000000 0.000000 
-0.018976 0.896278 -0.063054 -1.514670 -4.928333 2.101100 7.464322 -0.416797 -22.364134 -1.165174 -0.022906 37.450808 1.136570 -0.577592 -7.149143 0.000000 0.000000 0.000000 -2.090877 1.907054 -20.477045 0.690994 2.057532 37.859948 -3.961050 -7.253829 -7.101294 0.000000 0.000000 0.000000 8.579538 -0.342758 2.081881 -2.045966 0.967948 -1.208388 -8.179570 10.760477 8.134439 14.928572 -7.657746 -14.974253 0.000000 0.000000 0.000000 -12.742922 -7.536292 0.683921 -21.302994 0.886718 -2.234671 -135.014927 -64.034677 113.266521 0.000000 0.000000 0.000000 5.369142 -3.085331 -1.112470 21.535536 -0.073910 -2.536843 128.083297 54.185366 102.799682 0.000000 0.000000 0.000000 
-0.020177 0.896846 -0.063471 -1.497934 -4.791996 2.372786 7.431645 -0.435406 -22.404794 -1.093597 -0.079162 37.022584 1.072547 -0.814072 -7.287828 0.000000 0.000000 0.000000 -2.097620 1.907164 -20.519728 0.633052 2.031438 37.473999 -3.878869 -7.028680 -7.088628 0.000000 0.000000 0.000000 8.619871 -0.344406 2.009534 -2.138169 1.011462 -1.150975 -8.342745 10.934891 8.421452 14.782453 -7.364204 -15.592896 0.000000 0.000000 0.000000 -13.755557 -7.122000 0.302337 -23.820878 1.542913 -2.626780 -131.708922 -65.814046 110.755276 0.000000 0.000000 0.000000 5.953725 -3.178211 -1.127797 23.393545 -0.990233 -2.890102 128.143227 54.794281 103.934227 0.000000 0.000000 0.000000 
-0.020627 0.898148 -0.064070 -1.530980 -5.226716 2.581112 7.420192 -0.411335 -21.908175 -0.848396 -0.128260 36.060160 1.020324 -0.882855 -7.257246 0.000000 0.000000 0.000000 -1.958679 1.942533 -20.523954 0.634582 2.053740 36.912135 -3.895526 -7.128850 -6.874498 0.000000 0.000000 0.000000 8.818906 -0.335584 1.867651 -2.378366 1.127616 -0.808592 -8.222552 11.137708 8.610784 15.019656 -7.491806 -15.750410 0.000000 0.000000 0.000000 -14.683428 -7.015442 0.128625 -26.792898 3.159530 -3.313857 -127.514082 -67.239741 107.113739 0.000000 0.000000 0.000000 7.492102 -3.432681 -1.230622 24.864228 -1.322324 -3.143734 126.012357 55.089792 101.310463 0.000000 0.000000 0.000000 
